<svg width="22" height="23" viewBox="0 0 22 23" fill="none" xmlns="http://www.w3.org/2000/svg">
<g clip-path="url(#clip0)">
<path d="M11 22.4525C17.0651 22.4525 22 17.4695 22 11.3443C22 10.2871 21.8539 9.24522 21.5645 8.24745C21.4219 7.75681 20.9146 7.47499 20.4274 7.61895C19.9411 7.76246 19.6629 8.2766 19.805 8.76724C20.0447 9.59619 20.1667 10.4636 20.1667 11.3443C20.1667 16.4484 16.0544 20.6011 11 20.6011C5.94558 20.6011 1.83333 16.4484 1.83333 11.3443C1.83333 6.24014 5.94558 2.08745 11 2.08745C12.8369 2.08745 14.6042 2.62984 16.1108 3.65564C16.5302 3.94153 17.1004 3.82921 17.3831 3.40569C17.666 2.98172 17.5556 2.40633 17.1358 2.12067C15.3253 0.887859 13.2037 0.236084 11 0.236084C4.93492 0.236084 0 5.21909 0 11.3443C0 17.4695 4.93492 22.4525 11 22.4525Z" fill="#39505F"/>
<path d="M20.4352 2.35867L11 11.8862L7.98145 8.83845C7.62338 8.47708 7.0433 8.47708 6.68523 8.83845C6.32738 9.20005 6.32738 9.78583 6.68523 10.1474L10.3519 13.8502C10.5312 14.0312 10.7652 14.1214 11 14.1214C11.2348 14.1214 11.4689 14.0312 11.6481 13.8502L21.7315 3.66765C22.0893 3.30605 22.0893 2.72027 21.7315 2.35867C21.3734 1.9973 20.7933 1.9973 20.4352 2.35867Z" fill="#39505F"/>
</g>
<defs>
<clipPath id="clip0">
<rect width="22" height="22.2164" fill="white" transform="translate(0 0.236084)"/>
</clipPath>
</defs>
</svg>
