<svg width="24" height="24" viewBox="0 0 24 24" fill="none" xmlns="http://www.w3.org/2000/svg">
<path d="M17.6719 5.625H6.32812C5.93976 5.625 5.625 5.93976 5.625 6.32812V17.6719C5.625 18.0602 5.93976 18.375 6.32812 18.375H17.6719C18.0602 18.375 18.375 18.0602 18.375 17.6719V6.32812C18.375 5.93976 18.0602 5.625 17.6719 5.625ZM16.9688 16.9688H7.03125V7.03125H16.9688V16.9688Z" fill="#39505F"/>
<path d="M23.2969 9.89062C23.6852 9.89062 24 9.57587 24 9.1875C24 8.79913 23.6852 8.48438 23.2969 8.48438H21.1875V7.07812H23.2969C23.6852 7.07812 24 6.76337 24 6.375C24 5.98663 23.6852 5.67188 23.2969 5.67188H21.1875V4.45312C21.1875 3.5484 20.4516 2.8125 19.5469 2.8125H18.3281V0.703125C18.3281 0.314758 18.0134 0 17.625 0C17.2366 0 16.9219 0.314758 16.9219 0.703125V2.8125H15.5156V0.703125C15.5156 0.314758 15.2009 0 14.8125 0C14.4241 0 14.1094 0.314758 14.1094 0.703125V2.8125H12.7031V0.703125C12.7031 0.314758 12.3884 0 12 0C11.6116 0 11.2969 0.314758 11.2969 0.703125V2.8125H9.89062V0.703125C9.89062 0.314758 9.57587 0 9.1875 0C8.79913 0 8.48438 0.314758 8.48438 0.703125V2.8125H7.07812V0.703125C7.07812 0.314758 6.76337 0 6.375 0C5.98663 0 5.67188 0.314758 5.67188 0.703125V2.8125H4.45312C3.5484 2.8125 2.8125 3.5484 2.8125 4.45312V5.67188H0.703125C0.314758 5.67188 0 5.98663 0 6.375C0 6.76337 0.314758 7.07812 0.703125 7.07812H2.8125V8.48438H0.703125C0.314758 8.48438 0 8.79913 0 9.1875C0 9.57587 0.314758 9.89062 0.703125 9.89062H2.8125V11.2969H0.703125C0.314758 11.2969 0 11.6116 0 12C0 12.3884 0.314758 12.7031 0.703125 12.7031H2.8125V14.1094H0.703125C0.314758 14.1094 0 14.4241 0 14.8125C0 15.2009 0.314758 15.5156 0.703125 15.5156H2.8125V16.9219H0.703125C0.314758 16.9219 0 17.2366 0 17.625C0 18.0134 0.314758 18.3281 0.703125 18.3281H2.8125V19.5469C2.8125 20.4516 3.5484 21.1875 4.45312 21.1875H5.67188V23.2969C5.67188 23.6852 5.98663 24 6.375 24C6.76337 24 7.07812 23.6852 7.07812 23.2969V21.1875H8.48438V23.2969C8.48438 23.6852 8.79913 24 9.1875 24C9.57587 24 9.89062 23.6852 9.89062 23.2969V21.1875H11.2969V23.2969C11.2969 23.6852 11.6116 24 12 24C12.3884 24 12.7031 23.6852 12.7031 23.2969V21.1875H14.1094V23.2969C14.1094 23.6852 14.4241 24 14.8125 24C15.2009 24 15.5156 23.6852 15.5156 23.2969V21.1875H16.9219V23.2969C16.9219 23.6852 17.2366 24 17.625 24C18.0134 24 18.3281 23.6852 18.3281 23.2969V21.1875H19.5469C20.4516 21.1875 21.1875 20.4516 21.1875 19.5469V18.3281H23.2969C23.6852 18.3281 24 18.0134 24 17.625C24 17.2366 23.6852 16.9219 23.2969 16.9219H21.1875V15.5156H23.2969C23.6852 15.5156 24 15.2009 24 14.8125C24 14.4241 23.6852 14.1094 23.2969 14.1094H21.1875V12.7031H23.2969C23.6852 12.7031 24 12.3884 24 12C24 11.6116 23.6852 11.2969 23.2969 11.2969H21.1875V9.89062H23.2969ZM19.7812 19.5469C19.7812 19.6761 19.6761 19.7812 19.5469 19.7812H4.45312C4.32385 19.7812 4.21875 19.6761 4.21875 19.5469V4.45312C4.21875 4.32385 4.32385 4.21875 4.45312 4.21875H19.5469C19.6761 4.21875 19.7812 4.32385 19.7812 4.45312V19.5469Z" fill="#39505F"/>
</svg>
