<svg width="24" height="24" viewBox="0 0 24 24" fill="none" xmlns="http://www.w3.org/2000/svg">
<g clip-path="url(#clip0)">
<path d="M13.663 24H10.337C9.52498 24 8.83398 23.445 8.65598 22.651L8.23398 20.778C7.54698 20.487 6.89298 20.107 6.27998 19.644L4.45798 20.219C3.67598 20.46 2.82598 20.129 2.43398 19.431L0.775977 16.563C0.378977 15.853 0.512977 14.978 1.09798 14.428L2.50998 13.13C2.46698 12.75 2.44498 12.371 2.44498 12C2.44498 11.629 2.46598 11.25 2.50898 10.87L1.10398 9.578C0.512977 9.022 0.377977 8.148 0.770977 7.447L2.43898 4.562C2.82698 3.872 3.67598 3.538 4.45598 3.781L6.27998 4.356C6.89298 3.893 7.54798 3.513 8.23398 3.222L8.65598 1.348C8.83398 0.555 9.52498 0 10.337 0H13.663C14.475 0 15.166 0.555 15.344 1.349L15.766 3.222C16.453 3.513 17.107 3.893 17.72 4.356L19.542 3.781C20.322 3.537 21.173 3.871 21.566 4.569L23.224 7.437C23.621 8.147 23.487 9.022 22.902 9.572L21.49 10.87C21.533 11.25 21.554 11.629 21.554 12C21.554 12.371 21.533 12.75 21.49 13.13L22.896 14.422C22.898 14.424 22.9 14.426 22.902 14.428C23.487 14.978 23.622 15.852 23.229 16.553L21.561 19.438C21.172 20.128 20.323 20.462 19.544 20.219L17.719 19.643C17.106 20.106 16.451 20.486 15.765 20.777L15.343 22.651C15.166 23.445 14.475 24 13.663 24ZM6.43398 18.059C6.60598 18.059 6.77498 18.118 6.91198 18.23C7.59698 18.795 8.34698 19.23 9.13998 19.523C9.37798 19.611 9.55598 19.814 9.61198 20.062L10.121 22.322C10.144 22.425 10.236 22.5 10.339 22.5H13.665C13.768 22.5 13.859 22.425 13.883 22.323L14.392 20.063C14.448 19.815 14.625 19.612 14.864 19.524C15.657 19.231 16.407 18.795 17.092 18.231C17.288 18.069 17.551 18.017 17.795 18.094L19.996 18.789C20.1 18.821 20.212 18.785 20.261 18.696L21.929 15.812C21.979 15.723 21.961 15.601 21.88 15.523L20.192 13.971C20.008 13.802 19.921 13.554 19.959 13.307C20.025 12.867 20.059 12.427 20.059 12C20.059 11.573 20.026 11.134 19.959 10.693C19.922 10.446 20.009 10.198 20.192 10.029L21.884 8.473C21.96 8.401 21.98 8.278 21.924 8.179L20.266 5.312C20.212 5.217 20.104 5.18 19.994 5.212L17.796 5.906C17.552 5.983 17.289 5.931 17.093 5.769C16.408 5.204 15.658 4.769 14.865 4.476C14.627 4.388 14.449 4.185 14.393 3.937L13.884 1.677C13.857 1.575 13.766 1.5 13.663 1.5H10.337C10.234 1.5 10.143 1.575 10.119 1.677L9.60998 3.938C9.55498 4.186 9.37698 4.388 9.13898 4.477C8.34598 4.77 7.59598 5.205 6.91098 5.77C6.71498 5.932 6.45198 5.983 6.20798 5.907L4.00698 5.212C3.90298 5.18 3.79098 5.217 3.74198 5.305L2.07398 8.188C2.02298 8.278 2.04298 8.401 2.12498 8.479L3.81198 10.029C3.99598 10.198 4.08298 10.446 4.04498 10.693C3.97898 11.133 3.94498 11.573 3.94498 12C3.94498 12.427 3.97798 12.866 4.04498 13.307C4.08198 13.554 3.99498 13.802 3.81198 13.971L2.11998 15.527C2.04398 15.599 2.02398 15.722 2.07998 15.821L3.73798 18.688C3.79298 18.784 3.90198 18.823 4.00998 18.788L6.20798 18.094C6.28198 18.07 6.35798 18.059 6.43398 18.059Z" fill="#39505F"/>
<path d="M11.251 16C11.194 16 11.138 15.994 11.081 15.981C10.678 15.888 10.426 15.485 10.519 15.082L12.019 8.58198C12.112 8.17698 12.52 7.92798 12.918 8.01898C13.321 8.11198 13.573 8.51498 13.48 8.91798L11.98 15.418C11.9 15.766 11.592 16 11.251 16Z" fill="#39505F"/>
<path d="M15.2501 15C15.0451 15 14.8411 14.917 14.6921 14.752C14.4151 14.444 14.4401 13.97 14.7481 13.692L16.6291 12L14.7481 10.308C14.4401 10.031 14.4151 9.55704 14.6921 9.24805C14.9701 8.94105 15.4441 8.91605 15.7521 9.19205L18.2521 11.442C18.4101 11.585 18.5001 11.788 18.5001 12C18.5001 12.212 18.4101 12.415 18.2521 12.558L15.7521 14.808C15.6081 14.937 15.4291 15 15.2501 15Z" fill="#39505F"/>
<path d="M8.75 14.9999C8.571 14.9999 8.392 14.9369 8.248 14.8079L5.748 12.5579C5.59 12.4149 5.5 12.2119 5.5 11.9999C5.5 11.7879 5.59 11.5849 5.748 11.4419L8.248 9.19194C8.556 8.91494 9.029 8.93994 9.308 9.24794C9.585 9.55594 9.56 10.0299 9.252 10.3079L7.371 11.9999L9.252 13.6919C9.56 13.9689 9.585 14.4429 9.308 14.7519C9.159 14.9169 8.955 14.9999 8.75 14.9999Z" fill="#39505F"/>
</g>
<defs>
<clipPath id="clip0">
<rect width="24" height="24" fill="white"/>
</clipPath>
</defs>
</svg>
