<svg width="24" height="20" viewBox="0 0 24 20" fill="none" xmlns="http://www.w3.org/2000/svg">
<path d="M21.2782 5.09937H17.2045C17.0103 5.09937 16.853 5.25677 16.853 5.45093C16.853 5.64508 17.0103 5.80249 17.2045 5.80249H21.2782C21.4724 5.80249 21.6297 5.64508 21.6297 5.45093C21.6297 5.25677 21.4724 5.09937 21.2782 5.09937Z" fill="#39505F"/>
<path d="M21.2782 6.94092H17.2045C17.0103 6.94092 16.853 7.09832 16.853 7.29248C16.853 7.48664 17.0103 7.64404 17.2045 7.64404H21.2782C21.4724 7.64404 21.6297 7.48664 21.6297 7.29248C21.6297 7.09832 21.4724 6.94092 21.2782 6.94092Z" fill="#39505F"/>
<path d="M21.6298 9.13391C21.6298 8.93975 21.4724 8.78235 21.2782 8.78235H17.2045C17.0103 8.78235 16.853 8.93975 16.853 9.13391C16.853 9.32807 17.0103 9.48547 17.2045 9.48547H21.2782C21.4724 9.48547 21.6298 9.32811 21.6298 9.13391Z" fill="#39505F"/>
<path d="M19.2413 12.3672C18.509 12.3672 17.9132 12.963 17.9132 13.6953C17.9132 14.4277 18.509 15.0235 19.2413 15.0235C19.9736 15.0235 20.5694 14.4277 20.5694 13.6953C20.5694 12.963 19.9736 12.3672 19.2413 12.3672ZM19.2413 14.3203C18.8967 14.3203 18.6163 14.04 18.6163 13.6953C18.6163 13.3507 18.8967 13.0703 19.2413 13.0703C19.5859 13.0703 19.8663 13.3507 19.8663 13.6953C19.8663 14.04 19.5859 14.3203 19.2413 14.3203Z" fill="#39505F"/>
<path d="M19.2413 15.567C18.509 15.567 17.9132 16.1628 17.9132 16.8952C17.9132 17.6275 18.509 18.2233 19.2413 18.2233C19.9736 18.2233 20.5694 17.6275 20.5694 16.8952C20.5694 16.1628 19.9736 15.567 19.2413 15.567ZM19.2413 17.5202C18.8967 17.5202 18.6163 17.2398 18.6163 16.8952C18.6163 16.5505 18.8967 16.2701 19.2413 16.2701C19.5859 16.2701 19.8663 16.5505 19.8663 16.8952C19.8663 17.2398 19.5859 17.5202 19.2413 17.5202Z" fill="#39505F"/>
<path d="M16.6284 10.7216H16.1176C15.9234 10.7216 15.766 10.8789 15.766 11.0731C15.766 11.2673 15.9234 11.4247 16.1176 11.4247H16.6284C16.8226 11.4247 16.9799 11.2673 16.9799 11.0731C16.9799 10.8789 16.8226 10.7216 16.6284 10.7216Z" fill="#39505F"/>
<path d="M18.7167 11.0731C18.7167 10.8789 18.5593 10.7216 18.3651 10.7216H17.8544C17.6602 10.7216 17.5028 10.8789 17.5028 11.0731C17.5028 11.2673 17.6602 11.4247 17.8544 11.4247H18.3651C18.5593 11.4247 18.7167 11.2673 18.7167 11.0731Z" fill="#39505F"/>
<path d="M23.6484 10.3284C23.8426 10.3284 24 10.1711 24 9.97688V4.71892C24 4.0293 23.4389 3.46821 22.7493 3.46821H18.0579V1.82679C18.0579 1.03146 17.4109 0.384399 16.6156 0.384399H4.72644C4.53224 0.384399 4.37488 0.541805 4.37488 0.735961C4.37488 0.930117 4.53224 1.08752 4.72644 1.08752H16.6156C17.0232 1.08752 17.3548 1.41916 17.3548 1.82679V3.46821H16.5111V2.47629C16.5111 2.17572 16.2666 1.93122 15.966 1.93122H2.09193C1.79137 1.93122 1.54687 2.17572 1.54687 2.47629V14.0066C1.54687 14.3072 1.79137 14.5517 2.09193 14.5517H3.32085C3.51506 14.5517 3.67241 14.3943 3.67241 14.2001C3.67241 14.0059 3.51506 13.8486 3.32085 13.8486H2.25V2.63435H15.808V3.46821H15.7334C15.0438 3.46821 14.4827 4.02925 14.4827 4.71892V13.8486H4.72644C4.53224 13.8486 4.37488 14.006 4.37488 14.2002C4.37488 14.3944 4.53224 14.5517 4.72644 14.5517H14.4827V15.3955C13.7768 15.3955 2.01562 15.3955 1.44243 15.3955C1.03481 15.3955 0.70317 15.0638 0.70317 14.6562V1.82679C0.70317 1.41916 1.03481 1.08752 1.44243 1.08752H3.32085C3.51506 1.08752 3.67241 0.930117 3.67241 0.735961C3.67241 0.541805 3.51506 0.384399 3.32085 0.384399H1.44239C0.647061 0.384353 0 1.03141 0 1.82679V14.6562C0 15.4515 0.647061 16.0986 1.44239 16.0986H4.37493V16.808C4.37493 17.1745 4.6731 17.4727 5.03966 17.4727H6.40335V18.9125H5.09122C4.89702 18.9125 4.73966 19.0698 4.73966 19.264C4.73966 19.4582 4.89702 19.6156 5.09122 19.6156H12.9668C13.161 19.6156 13.3184 19.4582 13.3184 19.264C13.3184 19.0698 13.161 18.9125 12.9668 18.9125H11.6547V17.4727H13.0184C13.3849 17.4727 13.6832 17.1745 13.6832 16.808V16.0986H14.4828V18.3649C14.4828 19.0545 15.0439 19.6156 15.7335 19.6156H22.7494C23.439 19.6156 24.0001 19.0545 24.0001 18.3649V11.3825C24.0001 11.1883 23.8428 11.031 23.6486 11.031C23.4544 11.031 23.297 11.1883 23.297 11.3825V18.3649C23.297 18.6668 23.0514 18.9125 22.7494 18.9125H15.7334C15.4315 18.9125 15.1858 18.6668 15.1858 18.3649V4.71888C15.1858 4.41695 15.4314 4.17128 15.7334 4.17128H22.7493C23.0512 4.17128 23.2969 4.41691 23.2969 4.71888V9.97683C23.2969 10.171 23.4542 10.3284 23.6484 10.3284ZM10.9515 18.9125H7.10647V17.4727H10.9515V18.9125ZM12.9799 16.7696C12.1775 16.7696 5.97177 16.7696 5.07805 16.7696V16.0986H12.9799V16.7696Z" fill="#39505F"/>
</svg>
