<svg version="1" xmlns="http://www.w3.org/2000/svg" width="733.333" height="733.333" viewBox="0 0 550.000000 550.000000"><path d="M255.8.5c-.1.1-3.7.5-7.8.9-4.1.3-8.4.8-9.5 1-1.1.2-4.2.7-6.9 1-14.7 2-42 9.3-53.3 14.2-1.7.8-3.4 1.4-3.8 1.4-2.1 0-28.3 12.7-38.3 18.6C66.8 78.5 18.5 147.3 4.5 225.5c-3.4 19-4.3 30.9-4 53 .2 12.1.6 23.6.9 25.5.3 1.9.8 5.5 1.1 8 4.9 39.4 19.7 78.5 43.4 115 3 4.7 5.8 8.7 6.1 9 .3.3 2.5 3.2 5 6.5 4.7 6.4 6.6 8.6 14.5 17.3 31.2 34.4 70.3 60.1 114.2 75.2 6.3 2.2 12.5 4.2 13.7 4.5 1.1.2 5.5 1.3 9.6 2.4 4.1 1.1 8.9 2.2 10.5 2.6 4.7.8 20.5 3.3 25.5 4 7.8 1 46.1 1.3 54 .4 4.1-.4 9.9-1.1 12.9-1.4 42-4.5 91.3-24.9 128.5-53 11.9-9 13.8-10.6 26.1-22.4 32.6-31.4 57-70.9 70.5-113.7 4.3-13.8 6.4-21.7 7.5-28.4.3-1.9 1-6.2 1.6-9.4.6-3.3 1.3-7.8 1.5-10 .3-2.3.7-5.2 1-6.6.9-4.3 1.2-45.2.4-53-1.5-14.4-2.1-18.6-4.7-31C527.2 135.5 470.5 63.1 393 26.7c-14.4-6.7-15.7-7.3-25.5-10.7-17-6.1-41.2-12-55.1-13.5-2.7-.3-6.2-.8-7.9-1-3.2-.6-48.1-1.5-48.7-1z"/></svg>