<?xml version="1.0" encoding="UTF-8" standalone="no"?>
<svg
   xmlns:dc="http://purl.org/dc/elements/1.1/"
   xmlns:cc="http://creativecommons.org/ns#"
   xmlns:rdf="http://www.w3.org/1999/02/22-rdf-syntax-ns#"
   xmlns:svg="http://www.w3.org/2000/svg"
   xmlns="http://www.w3.org/2000/svg"
   xmlns:sodipodi="http://sodipodi.sourceforge.net/DTD/sodipodi-0.dtd"
   xmlns:inkscape="http://www.inkscape.org/namespaces/inkscape"
   height="487pt"
   viewBox="-29 0 487 487.71902"
   width="487pt"
   version="1.1"
   id="svg14"
   sodipodi:docname="save-money.svg.2021_01_23_20_25_34.0.svg"
   inkscape:version="1.0.1 (3bc2e813f5, 2020-09-07)">
  <style
     id="style849" />
  <style
     id="style3" />
  <metadata
     id="metadata20">
    <rdf:RDF>
      <cc:Work
         rdf:about="">
        <dc:format>image/svg+xml</dc:format>
        <dc:type
           rdf:resource="http://purl.org/dc/dcmitype/StillImage" />
      </cc:Work>
    </rdf:RDF>
  </metadata>
  <defs
     id="defs18" />
  <sodipodi:namedview
     pagecolor="#ffffff"
     bordercolor="#666666"
     borderopacity="1"
     objecttolerance="10"
     gridtolerance="10"
     guidetolerance="10"
     inkscape:pageopacity="0"
     inkscape:pageshadow="2"
     inkscape:window-width="1920"
     inkscape:window-height="1008"
     id="namedview16"
     showgrid="false"
     inkscape:document-rotation="0"
     inkscape:zoom="1.3059548"
     inkscape:cx="324.66667"
     inkscape:cy="263.40881"
     inkscape:window-x="0"
     inkscape:window-y="35"
     inkscape:window-maximized="1"
     inkscape:current-layer="svg14" />
  <path
     d="m 217.04674,209.38367 c -0.90234,-0.19531 -1.82813,-0.23047 -2.74219,-0.0937 -9.16015,-1.06641 -16.07031,-8.81641 -16.08594,-18.03516 0,-4.41797 -3.58203,-8 -8,-8 -4.41796,0 -8,3.58203 -8,8 0.0234,15.39453 10.32032,28.87891 25.16407,32.95313 v 8 c 0,4.41797 3.58203,8 8,8 4.41797,0 8,-3.58203 8,-8 v -7.51563 c 17.13281,-3.58593 28.77734,-19.54297 26.97656,-36.95312 -1.80469,-17.41016 -16.47266,-30.64063 -33.97656,-30.64453 -10.03125,0 -18.16407,-8.13282 -18.16407,-18.16407 0,-10.03125 8.13282,-18.16406 18.16407,-18.16406 10.03125,0 18.16406,8.13281 18.16406,18.16406 0,4.41797 3.58203,8 8,8 4.41797,0 8,-3.58203 8,-8 -0.0234,-16.16406 -11.34766,-30.10546 -27.16406,-33.4414 v -7.281251 c 0,-4.417969 -3.58203,-8 -8,-8 -4.41797,0 -8,3.582031 -8,8 v 7.769531 c -16.50782,4.50781 -27.13282,20.53516 -24.85938,37.49609 2.27344,16.96094 16.7461,29.6211 33.85938,29.61719 9.89843,0 17.97265,7.92578 18.15234,17.82031 0.18359,9.89453 -7.59766,18.11328 -17.48828,18.47266 z m 0,0"
     id="path2"
     style="fill:#3878a8;fill-opacity:1" />
  <path
     d="m 100.28956,162.58971 c 0,64.07031 51.9375,116.00781 116.00782,116.00781 64.07031,0 116.00781,-51.9375 116.00781,-116.00781 0,-64.070309 -51.9375,-116.007809 -116.00781,-116.007809 -64.03907,0.07031 -115.9336,51.96875 -116.00782,116.007809 z M 216.29738,62.581901 c 55.23437,0 100.00781,44.773439 100.00781,100.007809 0,55.23438 -44.77344,100.00781 -100.00781,100.00781 -55.23438,0 -100.00782,-44.77343 -100.00782,-100.00781 0.0625,-55.20703 44.80078,-99.945309 100.00782,-100.007809 z m 0,0"
     id="path4"
     style="fill:#3878a8;fill-opacity:1" />
  <path
     d="m 370.34194,302.49051 -62.66797,29.60937 c -8.65234,-16.09375 -25.25,-26.33594 -43.51562,-26.85156 l -57.85157,-1.58984 c -9.16015,-0.26172 -18.14843,-2.58204 -26.29297,-6.78907 l -5.88671,-3.05078 c -30.14063,-15.71094 -66.06641,-15.67187 -96.175786,0.10156 l 0.367188,-13.33593 c 0.121094,-4.41797 -3.359375,-8.09766 -7.777344,-8.21875 l -63.4375004,-1.7461 c -4.417968,-0.12109 -8.09374998,3.35938 -8.214844,7.77735 l -3.832031,139.21093 c -0.121093,4.41797 3.359375,8.09766 7.777344,8.21875 l 63.4375004,1.7461 h 0.21875 c 4.335937,0 7.882813,-3.44922 8,-7.78125 l 0.183594,-6.66016 16.480469,-8.82422 c 6.46875,-3.48047 14.03125,-4.30859 21.09766,-2.30859 l 98.41406,27.62109 c 0.17187,0.0508 0.34375,0.0898 0.51953,0.12891 7.11328,1.48828 14.36328,2.23437 21.62891,2.23047 15.39062,0.008 30.60156,-3.3086 44.58984,-9.73047 0.34375,-0.15625 0.67578,-0.33984 0.99219,-0.54688 l 142.6914,-92.29687 c 3.55469,-2.30078 4.70313,-6.96875 2.6211,-10.65625 -10.59375,-18.79688 -34.08985,-25.95703 -53.36719,-16.25781 z m -359.070313,107.5625 3.390625,-123.21875 47.441406,1.30468 -3.390625,123.22266 z m 258.925783,-2.09375 c -17.37891,7.84375 -36.78906,10.00781 -55.46875,6.1914 l -98.14844,-27.55078 c -11.04687,-3.12109 -22.871093,-1.82812 -32.976562,3.60547 l -8.421875,4.51172 2.253907,-81.92578 c 26.6875,-17.75 60.91406,-19.57422 89.33594,-4.76563 l 5.88672,3.05078 c 10.28906,5.3125 21.63671,8.24219 33.21093,8.57813 l 57.85547,1.58984 c 16.25,0.46875 30.05078,12.03907 33.34766,27.96094 l -86.17578,-2.37891 c -4.41797,-0.12109 -8.09375,3.36329 -8.21875,7.77735 -0.1211,4.41797 3.36328,8.09765 7.77734,8.21875 l 95.10156,2.61719 h 0.22266 c 4.33203,-0.004 7.875,-3.45313 7.99219,-7.78125 0.0976,-3.47657 -0.16016,-6.95704 -0.77344,-10.37891 l 64.27734,-30.37109 c 0.0625,-0.0274 0.125,-0.0586 0.1875,-0.0899 9.11719,-4.61328 20.14063,-3.07031 27.64063,3.8711 z m 0,0"
     id="path6"
     style="fill:#3878a8;fill-opacity:1" />
</svg>
